<svg width="500" height="500" viewBox="0 0.001 60.345 60.338" xmlns="http://www.w3.org/2000/svg">
  <defs>
    <linearGradient id="grad1" x1="0%" y1="0%" x2="100%" y2="0%">
      <stop offset="0%" style="stop-color:#a855f7;stop-opacity:1" />
      <stop offset="100%" style="stop-color:#ec4899;stop-opacity:1" />
    </linearGradient>
  </defs>
  <path fill="url(#grad1)" d="M30.172 14.319h24.793a1.53 1.53 0 0 1 1.33.767 30.3 30.3 0 0 1 3.098 7.538 1.6 1.6 0 0 1-.266 1.33 1.64 1.64 0 0 1-1.217.593H30.172a5.636 5.636 0 0 0-5.625 5.625 1.534 1.534 0 0 1-1.534 1.534h-7.16a1.534 1.534 0 0 1-1.534-1.534A15.867 15.867 0 0 1 30.172 14.32"/>
  <path fill="url(#grad1)" d="M30.172 46.026H5.38a1.53 1.53 0 0 1-1.33-.768A30.3 30.3 0 0 1 .951 37.72a1.5 1.5 0 0 1 .123-1.084 1.54 1.54 0 0 1 1.36-.838h27.738a5.636 5.636 0 0 0 5.626-5.626 1.534 1.534 0 0 1 1.534-1.534h7.16a1.534 1.534 0 0 1 1.534 1.534 15.867 15.867 0 0 1-15.854 15.854M1.534 31.706A1.534 1.534 0 0 1 0 30.172 30.16 30.16 0 0 1 50.106 7.538a1.58 1.58 0 0 1 .522 1.289 1.555 1.555 0 0 1-1.534 1.4H30.172a19.97 19.97 0 0 0-19.944 19.945 1.534 1.534 0 0 1-1.534 1.534Z"/>
  <path fill="url(#grad1)" d="M60.345 30.172c.078 25.784-30.852 39.747-50.107 22.635a1.544 1.544 0 0 1-.204-2.087 1.53 1.53 0 0 1 1.217-.603h18.921a19.97 19.97 0 0 0 19.945-19.945 1.534 1.534 0 0 1 1.534-1.534h7.16a1.534 1.534 0 0 1 1.534 1.534"/>
</svg>